:FULLY-SPECIFIED
:FORCE-ALL-JOINTS-BE-3DOF
:DEGREES
611
root 5.64128 16.7146 -3.44387 1.07636 56.0627 -6.77055
lfemur -18.8011 24.3407 -20.1609
ltibia 42.9146 0 0
lfoot -30.6131 22.4868 0
ltoes 11.9035 0 0
rfemur -50.5218 -17.1031 27.8592
rtibia 55.1115 0 0
rfoot 7.88264 28.8982 0
rtoes -6.12557 0 0
lowerback 3.70299 -2.88928 -5.5981
upperback 0.50964 -4.05865 1.03103
thorax -1.08496 -2.00986 4.37157
lowerneck -7.62181 -10.1511 -1.28666
upperneck 14.1757 -14.4676 5.86695
head 6.08903 -6.65236 0.913745
lclavicle -5.32386e-14 -1.1214e-14 0
lhumerus -21.0406 -38.5624 88.6219
lradius 55.1086 0 0
lwrist 22.7174 0 0
lhand -12.7295 0.35476 0
lfingers 7.12502 0 0
lthumb 13.3558 29.927 0
rclavicle -5.32386e-14 -1.1214e-14 0
rhumerus 23.3651 4.5633 -71.3425
rradius 123.074 0 0
rwrist -57.6274 0 0
rhand -27.8768 -23.0364 0
rfingers 7.12502 0 0
rthumb -1.26284 -773.085 0
612
root 5.64242 16.7454 -3.38087 1.81487 55.0535 -6.17004
lfemur -18.8994 24.3181 -19.9301
ltibia 43.2117 0 0
lfoot -30.4132 22.4279 0
ltoes 12.0484 0 0
rfemur -50.3394 -17.1038 27.7867
rtibia 55.078 0 0
rfoot 7.94835 28.6987 0
rtoes -5.85458 0 0
lowerback 3.70048 -2.89386 -5.59716
upperback 0.495788 -4.06621 1.00796
thorax -1.09914 -2.01367 4.34817
lowerneck -7.61102 -10.118 -1.28173
upperneck 14.1048 -14.4219 5.8759
head 6.065 -6.63095 0.921328
lclavicle -5.32069e-14 -1.12189e-14 0
lhumerus -20.7104 -38.4695 87.9932
lradius 55.0874 0 0
lwrist 22.8213 0 0
lhand -12.8673 0.33351 0
lfingers 7.12502 0 0
lthumb 13.2233 29.9189 0
rclavicle -5.32069e-14 -1.12189e-14 0
rhumerus 23.3214 4.28473 -70.9487
rradius 122.999 0 0
rwrist -57.5734 0 0
rhand -28.0807 -23.1957 0
rfingers 7.12502 0 0
rthumb -1.4588 -773.26 0
613
root 5.64388 16.7778 -3.31683 2.528 54.0035 -5.62331
lfemur -19.0037 24.2792 -19.6888
ltibia 43.5281 0 0
lfoot -30.2017 22.356 0
ltoes 12.2004 0 0
rfemur -50.1534 -17.0962 27.7024
rtibia 55.0478 0 0
rfoot 8.0203 28.4827 0
rtoes -5.57215 0 0
lowerback 3.69968 -2.89802 -5.59497
upperback 0.481434 -4.07321 0.98427
thorax -1.11506 -2.01719 4.32342
lowerneck -7.60027 -10.084 -1.27754
upperneck 14.0297 -14.3746 5.88418
head 6.03968 -6.60902 0.929049
lclavicle -5.31474e-14 -1.12178e-14 0
lhumerus -20.371 -38.3721 87.342
lradius 55.0654 0 0
lwrist 22.924 0 0
lhand -13.0043 0.310878 0
lfingers 7.12502 0 0
lthumb 13.0917 29.9092 0
rclavicle -5.31474e-14 -1.12178e-14 0
rhumerus 23.2597 4.00581 -70.5352
rradius 122.917 0 0
rwrist -57.4966 0 0
rhand -28.2805 -23.3586 0
rfingers 7.12502 0 0
rthumb -1.65088 -773.438 0
614
root 5.64563 16.8117 -3.25174 3.21613 52.9138 -5.12897
lfemur -19.114 24.2244 -19.4371
ltibia 43.8635 0 0
lfoot -29.979 22.2715 0
ltoes 12.3593 0 0
rfemur -49.9637 -17.0804 27.6063
rtibia 55.0207 0 0
rfoot 8.0983 28.2508 0
rtoes -5.2786 0 0
lowerback 3.70055 -2.90176 -5.59155
upperback 0.466593 -4.07963 0.95997
thorax -1.13268 -2.02041 4.29736
lowerneck -7.58957 -10.0494 -1.27406
upperneck 13.9507 -14.3259 5.89179
head 6.01308 -6.58656 0.936901
lclavicle -5.30608e-14 -1.12107e-14 0
lhumerus -20.0228 -38.2703 86.669
lradius 55.0427 0 0
lwrist 23.0256 0 0
lhand -13.1403 0.286901 0
lfingers 7.12502 0 0
lthumb 12.9609 29.8977 0
rclavicle -5.30608e-14 -1.12107e-14 0
rhumerus 23.1805 3.72666 -70.1026
rradius 122.829 0 0
rwrist -57.3973 0 0
rhand -28.4763 -23.525 0
rfingers 7.12502 0 0
rthumb -1.83911 -773.618 0
615
root 5.64768 16.8471 -3.18561 3.87965 51.7854 -4.68563
lfemur -19.2301 24.1538 -19.1754
ltibia 44.2173 0 0
lfoot -29.7452 22.1746 0
ltoes 12.5249 0 0
rfemur -49.7706 -17.0566 27.4987
rtibia 54.9967 0 0
rfoot 8.18219 28.0032 0
rtoes -4.97422 0 0
lowerback 3.70307 -2.90507 -5.58691
upperback 0.451277 -4.08548 0.93508
thorax -1.15196 -2.02333 4.27
lowerneck -7.57892 -10.0139 -1.27127
upperneck 13.8677 -14.2758 5.89875
head 5.98523 -6.5636 0.94488
lclavicle -5.29477e-14 -1.11979e-14 0
lhumerus -19.666 -38.1642 85.9748
lradius 55.0194 0 0
lwrist 23.126 0 0
lhand -13.2753 0.261615 0
lfingers 7.12502 0 0
lthumb 12.8311 29.8846 0
rclavicle -5.29477e-14 -1.11979e-14 0
rhumerus 23.084 3.44737 -69.6514
rradius 122.735 0 0
rwrist -57.276 0 0
rhand -28.668 -23.6948 0
rfingers 7.12502 0 0
rthumb -2.02351 -773.802 0
616
root 5.65 16.8839 -3.11847 4.51894 50.6193 -4.29191
lfemur -19.3519 24.068 -18.9038
ltibia 44.5891 0 0
lfoot -29.5006 22.0655 0
ltoes 12.6971 0 0
rfemur -49.5739 -17.0248 27.38
rtibia 54.9757 0 0
rfoot 8.27179 27.7402 0
rtoes -4.65934 0 0
lowerback 3.70718 -2.90796 -5.58107
upperback 0.435498 -4.09075 0.909614
thorax -1.17287 -2.02596 4.24137
lowerneck -7.56832 -9.97773 -1.26917
upperneck 13.7808 -14.2243 5.90506
head 5.95615 -6.54013 0.95298
lclavicle -5.28087e-14 -1.11795e-14 0
lhumerus -19.3009 -38.0537 85.26
lradius 54.9954 0 0
lwrist 23.2253 0 0
lhand -13.4094 0.235058 0
lfingers 7.12502 0 0
lthumb 12.7022 29.8699 0
rclavicle -5.28087e-14 -1.11795e-14 0
rhumerus 22.9705 3.16807 -69.1823
rradius 122.635 0 0
rwrist -57.1331 0 0
rhand -28.8558 -23.8679 0
rfingers 7.12502 0 0
rthumb -2.20411 -773.987 0
617
root 5.6526 16.9221 -3.0503 5.13436 49.4164 -3.94642
lfemur -19.4792 23.9671 -18.6227
ltibia 44.9783 0 0
lfoot -29.2455 21.9446 0
ltoes 12.8756 0 0
rfemur -49.3739 -16.9854 27.2504
rtibia 54.9575 0 0
rfoot 8.3669 27.4623 0
rtoes -4.33427 0 0
lowerback 3.71286 -2.91042 -5.57403
upperback 0.419271 -4.09546 0.88359
thorax -1.19536 -2.02829 4.2115
lowerneck -7.55776 -9.94083 -1.26772
upperneck 13.6902 -14.1715 5.91073
head 5.92588 -6.51618 0.961195
lclavicle -5.26444e-14 -1.11555e-14 0
lhumerus -18.928 -37.9391 84.5253
lradius 54.9708 0 0
lwrist 23.3234 0 0
lhand -13.5426 0.207266 0
lfingers 7.12502 0 0
lthumb 12.5741 29.8536 0
rclavicle -5.26444e-14 -1.11555e-14 0
rhumerus 22.8404 2.88886 -68.6956
rradius 122.529 0 0
rwrist -56.9691 0 0
rhand -29.0397 -24.0442 0
rfingers 7.12502 0 0
rthumb -2.38093 -774.176 0
618
root 5.65545 16.9616 -2.98112 5.7263 48.1779 -3.64776
lfemur -19.612 23.8515 -18.3323
ltibia 45.3846 0 0
lfoot -28.9802 21.8121 0
ltoes 13.0603 0 0
rfemur -49.1705 -16.9384 27.1101
rtibia 54.9422 0 0
rfoot 8.46737 27.1697 0
rtoes -3.99932 0 0
lowerback 3.72007 -2.91246 -5.56583
upperback 0.402607 -4.09959 0.857022
thorax -1.21939 -2.03032 4.1804
lowerneck -7.54725 -9.90321 -1.26692
upperneck 13.5959 -14.1173 5.91577
head 5.89445 -6.49175 0.969521
lclavicle -5.24554e-14 -1.11261e-14 0
lhumerus -18.5473 -37.8203 83.7711
lradius 54.9456 0 0
lwrist 23.4204 0 0
lhand -13.6748 0.178278 0
lfingers 7.12502 0 0
lthumb 12.447 29.8358 0
rclavicle -5.24554e-14 -1.11261e-14 0
rhumerus 22.694 2.60985 -68.192
rradius 122.418 0 0
rwrist -56.7843 0 0
rhand -29.2196 -24.2236 0
rfingers 7.12502 0 0
rthumb -2.55401 -774.367 0
